
<global>
amp_veltrack=0
ampeg_release=0.35
</global>

<group>
group_label=PP
xf_cccurve=gain
xfin_hicc1=64
xfout_hicc1=127
xfout_locc1=64

<region>
hikey=g#4
hivel=127
lokey=g4
loop_end=278782
loop_mode=loop_continuous
loop_start=99338
loop_xfade=44861
lovel=0
offset=19227
pitch_keycenter=g#4
sample=Cellos_maj3rd_PP_G#4.opus
</region>

<region>
hikey=g#3
hivel=127
lokey=g3
loop_end=257428
loop_mode=loop_continuous
loop_start=91729
loop_xfade=41424
lovel=0
offset=11420
pitch_keycenter=g#3
sample=Cellos_maj3rd_PP_G#3.opus
</region>

<region>
hikey=g#2
hivel=127
lokey=g2
loop_end=236928
loop_mode=loop_continuous
loop_start=84424
loop_xfade=38126
lovel=0
offset=1578
pitch_keycenter=g#2
sample=Cellos_maj3rd_PP_G#2.opus
</region>

<region>
hikey=f#4
hivel=127
lokey=f4
loop_end=237850
loop_mode=loop_continuous
loop_start=84753
loop_xfade=38274
lovel=0
offset=39
pitch_keycenter=f#4
sample=Cellos_maj3rd_PP_F#4.opus
</region>

<region>
hikey=f#3
hivel=127
lokey=f3
loop_end=229736
loop_mode=loop_continuous
loop_start=81862
loop_xfade=36968
lovel=0
offset=2219
pitch_keycenter=f#3
sample=Cellos_maj3rd_PP_F#3.opus
</region>

<region>
hikey=f#2
hivel=127
lokey=f2
loop_end=235205
loop_mode=loop_continuous
loop_start=83810
loop_xfade=37848
lovel=0
offset=1778
pitch_keycenter=f#2
sample=Cellos_maj3rd_PP_F#2.opus
</region>

<region>
hikey=e4
hivel=127
lokey=d#4
loop_end=267909
loop_mode=loop_continuous
loop_start=95464
loop_xfade=43111
lovel=0
offset=5276
pitch_keycenter=e4
sample=Cellos_maj3rd_PP_E4.opus
</region>

<region>
hikey=e3
hivel=127
lokey=d#3
loop_end=232891
loop_mode=loop_continuous
loop_start=82986
loop_xfade=37476
lovel=0
offset=407
pitch_keycenter=e3
sample=Cellos_maj3rd_PP_E3.opus
</region>

<region>
hikey=e2
hivel=127
lokey=d#2
loop_end=232461
loop_mode=loop_continuous
loop_start=82833
loop_xfade=37407
lovel=0
offset=2290
pitch_keycenter=e2
sample=Cellos_maj3rd_PP_E2.opus
</region>

<region>
hikey=C6
hivel=127
lokey=c#5
loop_end=262351
loop_mode=loop_continuous
loop_start=93483
loop_xfade=42217
lovel=0
offset=3645
pitch_keycenter=D5
sample=Cellos_maj3rd_PP_D5.opus
</region>

<region>
hikey=d4
hivel=127
lokey=c#4
loop_end=267535
loop_mode=loop_continuous
loop_start=83304
loop_xfade=37620
lovel=0
offset=3243
pitch_keycenter=d4
sample=Cellos_maj3rd_PP_D4.opus
</region>

<region>
hikey=d3
hivel=127
lokey=c#3
loop_end=232590
loop_mode=loop_continuous
loop_start=82879
loop_xfade=37427
lovel=0
offset=3341
pitch_keycenter=d3
sample=Cellos_maj3rd_PP_D3.opus
</region>

<region>
hikey=d2
hivel=127
lokey=c#2
loop_end=227618
loop_mode=loop_continuous
loop_start=81107
loop_xfade=36627
lovel=0
offset=2125
pitch_keycenter=d2
sample=Cellos_maj3rd_PP_D2.opus
</region>

<region>
hikey=c5
hivel=127
lokey=b4
loop_end=268062
loop_mode=loop_continuous
loop_start=95518
loop_xfade=43136
lovel=0
offset=14235
pitch_keycenter=c5
sample=Cellos_maj3rd_PP_C5.opus
</region>

<region>
hikey=c4
hivel=127
lokey=b3
loop_end=272698
loop_mode=loop_continuous
loop_start=97170
loop_xfade=43882
lovel=0
offset=11444
pitch_keycenter=c4
sample=Cellos_maj3rd_PP_C4.opus
</region>

<region>
hikey=c3
hivel=127
lokey=b2
loop_end=230150
loop_mode=loop_continuous
loop_start=82009
loop_xfade=37035
lovel=0
offset=1726
pitch_keycenter=c3
sample=Cellos_maj3rd_PP_C3.opus
</region>

<region>
hivel=127
key=c2
loop_end=248287
loop_mode=loop_continuous
loop_start=88472
loop_xfade=39953
lovel=0
offset=1701
sample=Cellos_maj3rd_PP_C2.opus
</region>

<region>
hikey=a#4
hivel=127
lokey=a4
loop_end=261871
loop_mode=loop_continuous
loop_start=93312
loop_xfade=42139
lovel=0
offset=18707
pitch_keycenter=a#4
sample=Cellos_maj3rd_PP_A#4.opus
</region>

<region>
hikey=a#3
hivel=127
lokey=a3
loop_end=231794
loop_mode=loop_continuous
loop_start=82595
loop_xfade=37299
lovel=0
offset=1165
pitch_keycenter=a#3
sample=Cellos_maj3rd_PP_A#3.opus
</region>

<region>
hikey=a#2
hivel=127
lokey=a2
loop_end=252103
loop_mode=loop_continuous
loop_start=89832
loop_xfade=40567
lovel=0
offset=5724
pitch_keycenter=a#2
sample=Cellos_maj3rd_PP_A#2.opus
</region>
</group>

<group>
group_label=FF
xf_cccurve=gain
xfin_hicc1=127
xfin_locc1=64
xfout_hicc1=127
xfout_locc1=127

<region>
hikey=g#4
hivel=127
lokey=g4
loop_end=229693
loop_mode=loop_continuous
loop_start=81846
loop_xfade=36961
lovel=0
pitch_keycenter=g#4
sample=Cellos_maj3rd_FF_G#4.opus
</region>

<region>
hikey=g#3
hivel=127
lokey=g3
loop_end=234518
loop_mode=loop_continuous
loop_start=83566
loop_xfade=37738
lovel=0
offset=830
pitch_keycenter=g#3
sample=Cellos_maj3rd_FF_G#3.opus
</region>

<region>
hikey=g#2
hivel=127
lokey=g2
loop_end=237914
loop_mode=loop_continuous
loop_start=84776
loop_xfade=38284
lovel=0
offset=1358
pitch_keycenter=g#2
sample=Cellos_maj3rd_FF_G#2.opus
</region>

<region>
hikey=f#4
hivel=127
lokey=f4
loop_end=232466
loop_mode=loop_continuous
loop_start=82834
loop_xfade=37408
lovel=0
offset=914
pitch_keycenter=f#4
sample=Cellos_maj3rd_FF_F#4.opus
</region>

<region>
hikey=f#3
hivel=127
lokey=f3
loop_end=233217
loop_mode=loop_continuous
loop_start=83102
loop_xfade=37528
lovel=0
offset=291
pitch_keycenter=f#3
sample=Cellos_maj3rd_FF_F#3.opus
</region>

<region>
hikey=f#2
hivel=127
lokey=f2
loop_end=231072
loop_mode=loop_continuous
loop_start=82338
loop_xfade=37183
lovel=0
offset=474
pitch_keycenter=f#2
sample=Cellos_maj3rd_FF_F#2.opus
</region>

<region>
hikey=e4
hivel=127
lokey=d#4
loop_end=233230
loop_mode=loop_continuous
loop_start=83107
loop_xfade=37530
lovel=0
offset=243
pitch_keycenter=e4
sample=Cellos_maj3rd_FF_E4.opus
</region>

<region>
hikey=e3
hivel=127
lokey=d#3
loop_end=236971
loop_mode=loop_continuous
loop_start=84440
loop_xfade=38132
lovel=0
pitch_keycenter=e3
sample=Cellos_maj3rd_FF_E3.opus
</region>

<region>
hikey=e2
hivel=127
lokey=d#2
loop_end=234782
loop_mode=loop_continuous
loop_start=83660
loop_xfade=37780
lovel=0
offset=118
pitch_keycenter=e2
sample=Cellos_maj3rd_FF_E2.opus
</region>

<region>
hikey=C6
hivel=127
lokey=c#5
loop_end=232359
loop_mode=loop_continuous
loop_start=82796
loop_xfade=37390
lovel=0
offset=517
pitch_keycenter=D5
sample=Cellos_maj3rd_FF_D5.opus
</region>

<region>
hikey=d4
hivel=127
lokey=c#4
loop_end=227271
loop_mode=loop_continuous
loop_start=80983
loop_xfade=36572
lovel=0
offset=14
pitch_keycenter=d4
sample=Cellos_maj3rd_FF_D4.opus
</region>

<region>
hikey=d3
hivel=127
lokey=c#3
loop_end=231595
loop_mode=loop_continuous
loop_start=82524
loop_xfade=37267
lovel=0
offset=504
pitch_keycenter=d3
sample=Cellos_maj3rd_FF_D3.opus
</region>

<region>
hikey=d2
hivel=127
lokey=c#2
loop_end=232783
loop_mode=loop_continuous
loop_start=82947
loop_xfade=37459
lovel=0
pitch_keycenter=d2
sample=Cellos_maj3rd_FF_D2.opus
</region>

<region>
hikey=c5
hivel=127
lokey=b4
loop_end=237484
loop_mode=loop_continuous
loop_start=84622
loop_xfade=38215
lovel=0
pitch_keycenter=c5
sample=Cellos_maj3rd_FF_C5.opus
</region>

<region>
hikey=c4
hivel=127
lokey=b3
loop_end=239155
loop_mode=loop_continuous
loop_start=85218
loop_xfade=38484
lovel=0
pitch_keycenter=c4
sample=Cellos_maj3rd_FF_C4.opus
</region>

<region>
hikey=c3
hivel=127
lokey=b2
loop_end=235654
loop_mode=loop_continuous
loop_start=83970
loop_xfade=37921
lovel=0
offset=138
pitch_keycenter=c3
sample=Cellos_maj3rd_FF_C3.opus
</region>

<region>
hivel=127
key=c2
loop_end=231972
loop_mode=loop_continuous
loop_start=82658
loop_xfade=37328
lovel=0
sample=Cellos_maj3rd_FF_C2.opus
</region>

<region>
hikey=a#4
hivel=127
lokey=a4
loop_end=227182
loop_mode=loop_continuous
loop_start=80952
loop_xfade=36557
lovel=0
offset=1776
pitch_keycenter=a#4
sample=Cellos_maj3rd_FF_A#4.opus
</region>

<region>
hikey=a#3
hivel=127
lokey=a3
loop_end=237937
loop_mode=loop_continuous
loop_start=84784
loop_xfade=38288
lovel=0
offset=426
pitch_keycenter=a#3
sample=Cellos_maj3rd_FF_A#3.opus
</region>

<region>
hikey=a#2
hivel=127
lokey=a2
loop_end=239452
loop_mode=loop_continuous
loop_start=85324
loop_xfade=38532
lovel=0
offset=197
pitch_keycenter=a#2
sample=Cellos_maj3rd_FF_A#2.opus
</region>
</group>